<svg xmlns="http://www.w3.org/2000/svg" viewBox="0 0 48 48"><title>29-doctor</title><g id="_29-doctor" data-name="29-doctor"><path d="M34,13h3v3.77A2.965,2.965,0,0,0,35,16H34Z" style="fill:#2b3e5b"/><path d="M11,13h3v3H13a2.965,2.965,0,0,0-2,.77Z" style="fill:#2b3e5b"/><path d="M14.04,21c.03.33.07.66.12.98L14,22H13a3,3,0,0,1-3-3,3.011,3.011,0,0,1,3-3h1v4C14,20.34,14.01,20.67,14.04,21Z" style="fill:#faa68e"/><path d="M37,16.77A2.94,2.94,0,0,1,38,19a3,3,0,0,1-3,3H34V16h1A2.965,2.965,0,0,1,37,16.77Z" style="fill:#ffcdbe"/><path d="M37,16.77A2.965,2.965,0,0,0,35,16H34a3,3,0,0,1,0,6h1a3,3,0,0,0,3-3A2.94,2.94,0,0,0,37,16.77Z" style="fill:#fdddd7"/><path d="M11,16.77A2.965,2.965,0,0,1,13,16h1a3,3,0,0,0,0,6H13a3,3,0,0,1-3-3A2.94,2.94,0,0,1,11,16.77Z" style="fill:#ffcdbe"/><path d="M30.89,35.08l-7.13,4.75-6.65-4.75A2.017,2.017,0,0,0,18,33.42V29l.09-.12a9.3,9.3,0,0,0,11.82,0L30,29v4.42A2.017,2.017,0,0,0,30.89,35.08Z" style="fill:#ffcdbe"/><path d="M34,13v7c0,.34-.01.67-.04,1H14.04c-.03-.33-.04-.66-.04-1V13H34Z" style="fill:#ffcdbe"/><path d="M14.04,21H33.96a11.475,11.475,0,0,1-2.89,6.78,10.944,10.944,0,0,1-1.16,1.1,9.3,9.3,0,0,1-11.82,0,11.241,11.241,0,0,1-3.93-6.9C14.11,21.66,14.07,21.33,14.04,21Z" style="fill:#64e1dc"/><path d="M32,13H11C11,5.82,16.82,1,24,1a13.658,13.658,0,0,1,9.19,3.31A11.416,11.416,0,0,1,37,13H32Z" style="fill:#64e1dc"/><path d="M23.76,39.83l7.13-4.75a2,2,0,0,0,.65.28l4.02.95L23,45v2H19V43Z" style="fill:#00a0aa"/><path d="M32.986,35.7,31.54,35.36a2,2,0,0,1-.65-.28l-7.13,4.75L19,43v4h2V44Z" style="fill:#1cadb5"/><path d="M47,43.75V47H23V45l12.56-8.69,6.81,1.6A6.009,6.009,0,0,1,47,43.75Z" style="fill:#64e1dc"/><path d="M23.76,39.83,19,43v4H1V43.75a6.009,6.009,0,0,1,4.63-5.84l10.83-2.55a2,2,0,0,0,.65-.28Z" style="fill:#64e1dc"/><path d="M17.11,35.08a2,2,0,0,1-.65.28l-1.473.347L20.76,39.83,17,42v5h2V43l4.76-3.17Z" style="fill:#00c8c8"/><polygon points="30.391 38 32.14 38.677 35.56 36.31 32.986 35.702 29.987 37.778 30.391 38" style="fill:#00c8c8"/><path d="M32.986,35.7,31.54,35.36a2,2,0,0,1-.65-.28l-2.631,1.753,1.728.945Z" style="fill:#64e1dc"/><path d="M47,43.75a6.009,6.009,0,0,0-4.63-5.84l-6.81-1.6-3.42,2.367.065.025,2.35.608,6.218,1.6A5.923,5.923,0,0,1,45,46.75V47h2Z" style="fill:#96ebe6"/><path d="M7.227,40.91,17.609,38l.333-.183-2.955-2.11,1.473-.347L5.63,37.91A6.009,6.009,0,0,0,1,43.75V47H3v-.25A5.923,5.923,0,0,1,7.227,40.91Z" style="fill:#96ebe6"/><path d="M17.942,37.817l1.7-.93L17.11,35.08a2,2,0,0,1-.65.28l-1.473.347Z" style="fill:#64e1dc"/><rect x="19" y="10" width="2" height="3" style="fill:#1cadb5"/><rect x="23" y="10" width="2" height="3" style="fill:#1cadb5"/><rect x="27" y="10" width="2" height="3" style="fill:#1cadb5"/><rect x="31" y="10" width="2" height="3" style="fill:#1cadb5"/><rect x="15" y="10" width="2" height="3" style="fill:#1cadb5"/><path d="M18,15H34V13H14v7c0,.34.01.67.04,1h2c-.03-.33-.04-.66-.04-1V17A2,2,0,0,1,18,15Z" style="fill:#ffbeaa"/><path d="M32,20c0,.34-.01.67-.04,1h2c.03-.33.04-.66.04-1V13H32v7Z" style="fill:#fdddd7"/><path d="M29.07,27.78a10.944,10.944,0,0,1-1.16,1.1A9.443,9.443,0,0,1,23,30.939,9.193,9.193,0,0,0,24,31a9.389,9.389,0,0,0,5.91-2.12,10.944,10.944,0,0,0,1.16-1.1A11.273,11.273,0,0,0,33.62,23h-2A11.273,11.273,0,0,1,29.07,27.78Z" style="fill:#96ebe6"/><path d="M31.96,21a12,12,0,0,1-.34,2h2a12,12,0,0,0,.34-2Z" style="fill:#00c8c8"/><path d="M14.16,21.98q.087.519.217,1.02H31.62a12,12,0,0,0,.34-2H14.04C14.07,21.33,14.11,21.66,14.16,21.98Z" style="fill:#1cadb5"/><path d="M16.377,23h-2a11.144,11.144,0,0,0,3.713,5.88A9.389,9.389,0,0,0,24,31a9.193,9.193,0,0,0,1-.061,9.443,9.443,0,0,1-4.91-2.059A11.144,11.144,0,0,1,16.377,23Z" style="fill:#00c8c8"/><path d="M16.16,21.98c-.05-.32-.09-.65-.12-.98h-2c.03.33.07.66.12.98q.087.519.217,1.02h2Q16.248,22.5,16.16,21.98Z" style="fill:#00a0aa"/><rect x="11" y="13" width="3" height="2" style="fill:#192b44"/><rect x="34" y="13" width="3" height="2" style="fill:#192b44"/><path d="M24,33a9.177,9.177,0,0,1-2.548-.365,8,8,0,0,0,5.476,5.085l3.962-2.64A2.017,2.017,0,0,1,30,33.42V30.8c-.031.026-.059.053-.09.079A9.389,9.389,0,0,1,24,33Z" style="fill:#fdddd7"/><path d="M21.452,32.635a7.99,7.99,0,0,1-.427-2.136A9.636,9.636,0,0,1,18.09,28.88L18,29v1.8c.031.025.059.055.09.08A9.6,9.6,0,0,0,21.452,32.635Z" style="fill:#ffbeaa"/><path d="M29.91,28.88A9.389,9.389,0,0,1,24,31a9.191,9.191,0,0,1-2.975-.5,7.99,7.99,0,0,0,.427,2.136A9.177,9.177,0,0,0,24,33a9.389,9.389,0,0,0,5.91-2.12c.031-.026.059-.053.09-.079V29Z" style="fill:#ffcdbe"/><rect x="17" y="12" width="2" height="1" style="fill:#00c8c8"/><rect x="21" y="12" width="2" height="1" style="fill:#00c8c8"/><path d="M27.857,10H29v.247c.651.128,1.315.244,2,.341V10h2v.82c1.236.112,2.515.171,3.823.176A11.262,11.262,0,0,0,33.19,4.31,13.658,13.658,0,0,0,24,1a14.306,14.306,0,0,0-6.92,1.712C17.634,5.9,21.855,8.609,27.857,10Z" style="fill:#96ebe6"/><rect x="25" y="12" width="2" height="1" style="fill:#00c8c8"/><path d="M11.051,12c-.026.33-.051.66-.051,1h4V12Z" style="fill:#00c8c8"/><path d="M33,12v1h4c0-.34-.025-.67-.051-1Z" style="fill:#00c8c8"/><rect x="29" y="12" width="2" height="1" style="fill:#00c8c8"/><rect x="19" y="10" width="2" height="2" style="fill:#1cadb5"/><polygon points="19 12 19 13 20 13 21 13 21 12 19 12" style="fill:#00a0aa"/><rect x="23" y="10" width="2" height="2" style="fill:#1cadb5"/><polygon points="23 12 23 13 24 13 25 13 25 12 23 12" style="fill:#00a0aa"/><path d="M27.857,10H27v2h2V10.247C28.611,10.171,28.233,10.087,27.857,10Z" style="fill:#1cadb5"/><polygon points="27 12 27 13 28 13 29 13 29 12 27 12" style="fill:#00a0aa"/><polygon points="31 12 31 13 32 13 33 13 33 12 31 12" style="fill:#00a0aa"/><path d="M31,10.588V12h2V10.82Q31.98,10.727,31,10.588Z" style="fill:#1cadb5"/><path d="M33,10H31v.588q.979.138,2,.232Z" style="fill:#64e1dc"/><rect x="15" y="10" width="2" height="2" style="fill:#1cadb5"/><polygon points="15 12 15 13 16 13 17 13 17 12 15 12" style="fill:#00a0aa"/><ellipse cx="29.5" cy="17" rx="0.5" ry="2" style="fill:#2b3e5b"/><ellipse cx="18.5" cy="17" rx="0.5" ry="2" style="fill:#2b3e5b"/><ellipse cx="28" cy="4" rx="0.825" ry="1.148" transform="translate(5.378 20.978) rotate(-45.02)" style="fill:#f6fafd"/><ellipse cx="41" cy="39" rx="0.825" ry="1.148" transform="translate(-15.568 40.434) rotate(-45.02)" style="fill:#f6fafd"/><ellipse cx="31.003" cy="6.987" rx="1.642" ry="2.286" transform="translate(4.146 23.978) rotate(-45.02)" style="fill:#f6fafd"/><ellipse cx="38.746" cy="38.5" rx="0.413" ry="0.574" transform="translate(-15.875 38.693) rotate(-45.02)" style="fill:#f6fafd"/></g></svg>